<svg width="14" height="14" viewBox="0 0 14 14" fill="none" xmlns="http://www.w3.org/2000/svg">
<path fill-rule="evenodd" clip-rule="evenodd" d="M9.5 5V4C9.5 3.33696 9.23661 2.70107 8.76777 2.23223C8.29893 1.76339 7.66304 1.5 7 1.5C6.33696 1.5 5.70107 1.76339 5.23223 2.23223C4.76339 2.70107 4.5 3.33696 4.5 4V5H9.5ZM3 4V5C2.20435 5 1.44129 5.31607 0.87868 5.87868C0.31607 6.44129 0 7.20435 0 8V11C0 11.7956 0.31607 12.5587 0.87868 13.1213C1.44129 13.6839 2.20435 14 3 14H11C11.7956 14 12.5587 13.6839 13.1213 13.1213C13.6839 12.5587 14 11.7956 14 11V8C14 7.20435 13.6839 6.44129 13.1213 5.87868C12.5587 5.31607 11.7956 5 11 5V4C11 2.93913 10.5786 1.92172 9.82843 1.17157C9.07828 0.421427 8.06087 0 7 0C5.93913 0 4.92172 0.421427 4.17157 1.17157C3.42143 1.92172 3 2.93913 3 4ZM9.5 6.5H11C11.3978 6.5 11.7794 6.65804 12.0607 6.93934C12.342 7.22064 12.5 7.60218 12.5 8V11C12.5 11.3978 12.342 11.7794 12.0607 12.0607C11.7794 12.342 11.3978 12.5 11 12.5H3C2.60218 12.5 2.22064 12.342 1.93934 12.0607C1.65804 11.7794 1.5 11.3978 1.5 11V8C1.5 7.60218 1.65804 7.22064 1.93934 6.93934C2.22064 6.65804 2.60218 6.5 3 6.5H9.5ZM7.75 8.5C7.75 8.30109 7.67098 8.11032 7.53033 7.96967C7.38968 7.82902 7.19891 7.75 7 7.75C6.80109 7.75 6.61032 7.82902 6.46967 7.96967C6.32902 8.11032 6.25 8.30109 6.25 8.5V10.5C6.25 10.6989 6.32902 10.8897 6.46967 11.0303C6.61032 11.171 6.80109 11.25 7 11.25C7.19891 11.25 7.38968 11.171 7.53033 11.0303C7.67098 10.8897 7.75 10.6989 7.75 10.5V8.5Z" fill="#FAFAFA"/>
</svg>
